<svg xmlns="http://www.w3.org/2000/svg" width="160.509" height="160.509" viewBox="0 0 160.509 160.509">
  <g id="main" transform="translate(-192.644 -122.097)">
    <g id="Group_1" data-name="Group 1" transform="translate(234.232 122.097)">
      <path id="Path_1" data-name="Path 1" d="M295.039,123.361c-7.01,3.225-9.885,10.445-7.01,17.386a11.451,11.451,0,0,0,6.309,6.73c9.394,4.837,19.909-2.243,19.138-12.9-.35-4.977-2.874-8.553-7.571-11.006A11.485,11.485,0,0,0,295.039,123.361Z" transform="translate(-261.632 -122.097)" fill="#a4c740"/>
      <path id="Path_2" data-name="Path 2" d="M263.713,164.3a19.062,19.062,0,0,0-10.656,10.095c-1.4,3.225-2.874,14.582-1.893,14.582.28,0,1.052-1.192,1.823-2.664,3.575-7.01,13.6-10.235,23.555-7.571,11.216,2.944,25.1,13.67,35.332,27.27,1.682,2.173,3.295,4,3.575,4,2.173,0,6.1-9.043,6.73-15.353.351-3.575.21-4.206-1.823-7.221-3.926-5.889-12.759-12.829-22.293-17.666C286.426,163.879,271.494,161.5,263.713,164.3Z" transform="translate(-250.846 -133.959)" fill="#a4c740"/>
      <path id="Path_3" data-name="Path 3" d="M263.694,243.014a30.245,30.245,0,0,0-4.276,12.9c-.42,3.786-.28,4.346,1.753,7.361,5.959,8.973,21.522,18.788,35.823,22.714,6.73,1.893,18.227,1.753,22.363-.14,6.73-3.155,10.235-9.113,11.006-18.507.351-4.346.21-5.678-.351-5.328a1.671,1.671,0,0,0-.841,1.192c0,1.682-4,5.748-7.291,7.431a25.475,25.475,0,0,1-15.914,1.612c-10.936-2.524-24.256-12.478-35.122-26.008C268.111,242.8,265.8,240,265.657,240A17.207,17.207,0,0,0,263.694,243.014Z" transform="translate(-253.351 -156.179)" fill="#a4c740"/>
      <path id="Path_4" data-name="Path 4" d="M298.567,310.455a23.46,23.46,0,0,1-2.594.631c-4.627,1.052-8.973,7.151-8.973,12.759,0,10.375,11.357,16.895,20.05,11.567a13.51,13.51,0,0,0,2.8-20.961,12.5,12.5,0,0,0-3.225-2.594C304.736,310.946,299.759,310.034,298.567,310.455Z" transform="translate(-261.654 -176.803)" fill="#a4c740"/>
    </g>
    <g id="Group_2" data-name="Group 2" transform="translate(192.644 163.844)">
      <path id="Path_5" data-name="Path 5" d="M193.9,234.79c3.209,7.018,10.423,9.908,17.37,7.05a11.451,11.451,0,0,0,6.745-6.294c4.858-9.383-2.2-19.914-12.856-19.168-4.978.339-8.559,2.855-11.023,7.547A11.485,11.485,0,0,0,193.9,234.79Z" transform="translate(-192.644 -191.231)" fill="#1d3854"/>
      <path id="Path_6" data-name="Path 6" d="M234.772,247.08a19.061,19.061,0,0,0,10.071,10.679c3.221,1.409,14.574,2.906,14.577,1.925,0-.28-1.19-1.054-2.66-1.828-7-3.591-10.2-13.623-7.518-23.572,2.97-11.21,13.726-25.067,27.349-35.271,2.177-1.678,4-3.286,4-3.566,0-2.173-9.03-6.119-15.338-6.764-3.575-.359-4.206-.22-7.225,1.807-5.9,3.912-12.857,12.729-17.716,22.253C234.4,224.365,231.985,239.292,234.772,247.08Z" transform="translate(-204.489 -182.916)" fill="#1d3854"/>
      <path id="Path_7" data-name="Path 7" d="M313.472,247.336a30.239,30.239,0,0,0,12.889,4.3c3.785.429,4.346.29,7.364-1.736,8.987-5.938,18.836-21.48,22.794-35.772,1.908-6.726,1.794-18.223-.09-22.364-3.14-6.737-9.09-10.255-18.483-11.048-4.346-.36-5.678-.223-5.329.339a1.671,1.671,0,0,0,1.19.844c1.682,0,5.74,4.009,7.415,7.308a25.472,25.472,0,0,1,1.577,15.917c-2.548,10.93-12.533,24.228-26.087,35.063-3.441,2.726-6.251,5.033-6.251,5.174A17.254,17.254,0,0,0,313.472,247.336Z" transform="translate(-226.7 -180.523)" fill="#1d3854"/>
      <path id="Path_8" data-name="Path 8" d="M381,231.674a23.3,23.3,0,0,1,.625,2.6c1.042,4.629,7.131,8.989,12.739,9,10.375.023,16.92-11.319,11.612-20.024a13.51,13.51,0,0,0-20.955-2.851,12.511,12.511,0,0,0-2.6,3.218C381.5,225.505,380.578,230.481,381,231.674Z" transform="translate(-247.348 -191.326)" fill="#1d3854"/>
    </g>
  </g>
</svg>
